<mxfile host="65bd71144e">
    <diagram name="Page-1" id="vLm_T17GN3QHBKCBpYql">
        <mxGraphModel dx="501" dy="419" grid="1" gridSize="10" guides="1" tooltips="1" connect="1" arrows="1" fold="1" page="1" pageScale="1" pageWidth="850" pageHeight="1100" math="0" shadow="0">
            <root>
                <mxCell id="0"/>
                <mxCell id="1" parent="0"/>
                <mxCell id="jkmDJFqtNfqMMXgdeNpK-34" style="edgeStyle=orthogonalEdgeStyle;rounded=0;orthogonalLoop=1;jettySize=auto;html=1;curved=1;" parent="1" source="jkmDJFqtNfqMMXgdeNpK-32" target="jkmDJFqtNfqMMXgdeNpK-27" edge="1">
                    <mxGeometry relative="1" as="geometry"/>
                </mxCell>
                <mxCell id="jkmDJFqtNfqMMXgdeNpK-35" value="2.copy pre-commit file .git folder" style="edgeLabel;html=1;align=center;verticalAlign=middle;resizable=0;points=[];" parent="jkmDJFqtNfqMMXgdeNpK-34" vertex="1" connectable="0">
                    <mxGeometry x="-0.2651" y="1" relative="1" as="geometry">
                        <mxPoint x="-2" y="-51" as="offset"/>
                    </mxGeometry>
                </mxCell>
                <mxCell id="jkmDJFqtNfqMMXgdeNpK-28" style="edgeStyle=orthogonalEdgeStyle;rounded=0;orthogonalLoop=1;jettySize=auto;html=1;" parent="1" source="jkmDJFqtNfqMMXgdeNpK-3" target="jkmDJFqtNfqMMXgdeNpK-27" edge="1">
                    <mxGeometry relative="1" as="geometry"/>
                </mxCell>
                <mxCell id="jkmDJFqtNfqMMXgdeNpK-33" style="edgeStyle=orthogonalEdgeStyle;rounded=0;orthogonalLoop=1;jettySize=auto;html=1;entryX=0.5;entryY=0;entryDx=0;entryDy=0;" parent="1" source="jkmDJFqtNfqMMXgdeNpK-3" target="jkmDJFqtNfqMMXgdeNpK-32" edge="1">
                    <mxGeometry relative="1" as="geometry"/>
                </mxCell>
                <mxCell id="jkmDJFqtNfqMMXgdeNpK-3" value="Local Repository&lt;div&gt;&lt;br&gt;&lt;/div&gt;" style="dashed=0;outlineConnect=0;html=1;align=center;labelPosition=center;verticalLabelPosition=bottom;verticalAlign=top;shape=mxgraph.weblogos.github" parent="1" vertex="1">
                    <mxGeometry x="60" y="260" width="75" height="75" as="geometry"/>
                </mxCell>
                <mxCell id="jkmDJFqtNfqMMXgdeNpK-19" style="edgeStyle=orthogonalEdgeStyle;rounded=0;orthogonalLoop=1;jettySize=auto;html=1;curved=1;" parent="1" source="jkmDJFqtNfqMMXgdeNpK-4" target="jkmDJFqtNfqMMXgdeNpK-24" edge="1">
                    <mxGeometry relative="1" as="geometry">
                        <mxPoint x="375.41379310344837" y="270" as="targetPoint"/>
                    </mxGeometry>
                </mxCell>
                <mxCell id="jkmDJFqtNfqMMXgdeNpK-22" style="edgeStyle=orthogonalEdgeStyle;rounded=0;orthogonalLoop=1;jettySize=auto;html=1;curved=1;" parent="1" source="jkmDJFqtNfqMMXgdeNpK-4" target="jkmDJFqtNfqMMXgdeNpK-38" edge="1">
                    <mxGeometry relative="1" as="geometry">
                        <mxPoint x="420" y="35.27586206896558" as="targetPoint"/>
                    </mxGeometry>
                </mxCell>
                <mxCell id="jkmDJFqtNfqMMXgdeNpK-23" style="edgeStyle=orthogonalEdgeStyle;rounded=0;orthogonalLoop=1;jettySize=auto;html=1;curved=1;" parent="1" source="jkmDJFqtNfqMMXgdeNpK-4" target="jkmDJFqtNfqMMXgdeNpK-36" edge="1">
                    <mxGeometry relative="1" as="geometry">
                        <mxPoint x="404.7931034482758" y="150" as="targetPoint"/>
                        <Array as="points">
                            <mxPoint x="405" y="75"/>
                        </Array>
                    </mxGeometry>
                </mxCell>
                <mxCell id="jkmDJFqtNfqMMXgdeNpK-25" style="edgeStyle=orthogonalEdgeStyle;rounded=0;orthogonalLoop=1;jettySize=auto;html=1;" parent="1" source="jkmDJFqtNfqMMXgdeNpK-4" target="jkmDJFqtNfqMMXgdeNpK-3" edge="1">
                    <mxGeometry relative="1" as="geometry">
                        <mxPoint x="80" y="160" as="targetPoint"/>
                    </mxGeometry>
                </mxCell>
                <mxCell id="jkmDJFqtNfqMMXgdeNpK-26" value="1.add the content to the java project" style="edgeLabel;html=1;align=center;verticalAlign=middle;resizable=0;points=[];" parent="jkmDJFqtNfqMMXgdeNpK-25" vertex="1" connectable="0">
                    <mxGeometry x="0.1574" y="-2" relative="1" as="geometry">
                        <mxPoint as="offset"/>
                    </mxGeometry>
                </mxCell>
                <mxCell id="jkmDJFqtNfqMMXgdeNpK-4" value="checkstyle folder" style="sketch=0;pointerEvents=1;shadow=0;dashed=0;html=1;strokeColor=none;fillColor=#505050;labelPosition=center;verticalLabelPosition=bottom;verticalAlign=top;outlineConnect=0;align=center;shape=mxgraph.office.concepts.folder;" parent="1" vertex="1">
                    <mxGeometry x="250" y="60" width="33" height="30" as="geometry"/>
                </mxCell>
                <mxCell id="jkmDJFqtNfqMMXgdeNpK-24" value="pre-commit" style="shadow=0;dashed=0;html=1;strokeColor=none;fillColor=#EF8F21;labelPosition=center;verticalLabelPosition=bottom;verticalAlign=top;align=center;outlineConnect=0;shape=mxgraph.veeam.linux;" parent="1" vertex="1">
                    <mxGeometry x="244.1" y="179.68" width="44.8" height="44.8" as="geometry"/>
                </mxCell>
                <mxCell id="jkmDJFqtNfqMMXgdeNpK-27" value=".git" style="sketch=0;pointerEvents=1;shadow=0;dashed=0;html=1;strokeColor=none;fillColor=#505050;labelPosition=center;verticalLabelPosition=bottom;verticalAlign=top;outlineConnect=0;align=center;shape=mxgraph.office.concepts.folder;" parent="1" vertex="1">
                    <mxGeometry x="260" y="282.5" width="33" height="30" as="geometry"/>
                </mxCell>
                <mxCell id="jkmDJFqtNfqMMXgdeNpK-32" value="task" style="shape=image;verticalLabelPosition=bottom;verticalAlign=top;imageAspect=0;aspect=fixed;image=data:image/svg+xml,PHN2ZyB4bWxucz0iaHR0cDovL3d3dy53My5vcmcvMjAwMC9zdmciIHZpZXdCb3g9IjAgMCAyNCAyNCIgcm9sZT0iaW1nIj48dGl0bGU+R3JhZGxlPC90aXRsZT48cGF0aCBkPSJNMjIuNjk1IDQuMjk3YTMuODA3IDMuODA3IDAgMCAwLTUuMjktLjA5LjM2OC4zNjggMCAwIDAgMCAuNTMzbC40Ni40N2EuMzYzLjM2MyAwIDAgMCAuNDc0LjAzMiAyLjE4MiAyLjE4MiAwIDAgMSAyLjg2IDMuMjkxYy0zLjAyMyAzLjAyLTcuMDU2LTUuNDQ3LTE2LjIxMS0xLjA4M2ExLjI0IDEuMjQgMCAwIDAtLjUzNCAxLjc0NWwxLjU3MSAyLjcxM2ExLjIzOCAxLjIzOCAwIDAgMCAxLjY4MS40NjFsLjAzNy0uMDItLjAyOS4wMi42ODgtLjM4NGExNi4wODMgMTYuMDgzIDAgMCAwIDIuMTkzLTEuNjM1LjM4NC4zODQgMCAwIDEgLjQ5OS0uMDE2LjM1Ny4zNTcgMCAwIDEgLjAxNi41MzQgMTYuNDM1IDE2LjQzNSAwIDAgMS0yLjMxNiAxLjc0MUg4Ljc3bC0uNjk2LjM5YTEuOTU4IDEuOTU4IDAgMCAxLS45NjMuMjUgMS45ODcgMS45ODcgMCAwIDEtMS43MjYtLjk4OUwzLjkgOS42OTZDMS4wNiAxMS43Mi0uNjg2IDE1LjYwMy4yNiAyMC41MjJhLjM2My4zNjMgMCAwIDAgLjM1NC4yOTZoMS42NzVhLjM2My4zNjMgMCAwIDAgLjM3LS4zMzEgMi40NzggMi40NzggMCAwIDEgNC45MTUgMCAuMzYuMzYgMCAwIDAgLjM1Ny4zMTdoMS42MzhhLjM2My4zNjMgMCAwIDAgLjM1Ny0uMzE3IDIuNDc4IDIuNDc4IDAgMCAxIDQuOTE0IDAgLjM2My4zNjMgMCAwIDAgLjM1OC4zMTdoMS42MjdhLjM2My4zNjMgMCAwIDAgLjM2My0uMzU3Yy4wMzctMi4yOTQuNjU2LTQuOTMgMi40Mi02LjI1IDYuMTA4LTQuNTcgNC41MDItOC40ODYgMy4wODgtOS45em0tNi4yMjkgNi45MDFsLTEuMTY1LS41ODRhLjczLjczIDAgMSAxIDEuMTY1LjU4N3oiLz48L3N2Zz4=;imageBackground=#97D077;" parent="1" vertex="1">
                    <mxGeometry x="65.5" y="450" width="64" height="64" as="geometry"/>
                </mxCell>
                <mxCell id="jkmDJFqtNfqMMXgdeNpK-36" value="cheksctyle-v-[selected version].jar" style="dashed=0;outlineConnect=0;html=1;align=center;labelPosition=center;verticalLabelPosition=bottom;verticalAlign=top;shape=mxgraph.weblogos.java" parent="1" vertex="1">
                    <mxGeometry x="391" y="140" width="34.4" height="65" as="geometry"/>
                </mxCell>
                <mxCell id="jkmDJFqtNfqMMXgdeNpK-38" value="&lt;span style=&quot;background-color: rgb(0, 0, 0);&quot;&gt;checkstyle.xml&lt;/span&gt;" style="shape=image;html=1;verticalAlign=top;verticalLabelPosition=bottom;labelBackgroundColor=#ffffff;imageAspect=0;aspect=fixed;image=https://cdn1.iconfinder.com/data/icons/hawcons/32/699748-icon-102-document-file-xml-128.png" parent="1" vertex="1">
                    <mxGeometry x="410" y="10" width="70" height="70" as="geometry"/>
                </mxCell>
            </root>
        </mxGraphModel>
    </diagram>
</mxfile>